# xmcd
#
# Track frame offsets:
#	150
#	14854
#	29239
#	44355
#	57459
#	74247
#	90376
#	108163
#	122767
#	139514
#	152809
#	168421
#	185098
#	203715
#	220213
#
# Disc length: 3157 seconds
#
# Revision: 1
# Processed by: cddbd v1.5.2PL0 Copyright (c) Steve Scherf et al.
# Submitted via: audiograbber 1.83.01
#
DISCID=e60c530f
DTITLE=Trio Alto Astral - Troca o Ódio pelo Amor
DYEAR=2007
DGENRE=Sertanejo
TTITLE0=Queimo a língua mas não sopro
TTITLE1=Mata de saudade
TTITLE2=Não sou cavalo
TTITLE3=Marido pirata
TTITLE4=Coração em promoção
TTITLE5=Pensa
TTITLE6=Preciso de mim
TTITLE7=Falando sério
TTITLE8=É foda
TTITLE9=Martelo
TTITLE10=Aumenta o som
TTITLE11=Troca o ódio pelo amor
TTITLE12=Sonhei com ela
TTITLE13=O juiz
TTITLE14=Saudade pica pau
EXTD=
EXTT0=
EXTT1=
EXTT2=
EXTT3=
EXTT4=
EXTT5=
EXTT6=
EXTT7=
EXTT8=
EXTT9=
EXTT10=
EXTT11=
EXTT12=
EXTT13=
EXTT14=
PLAYORDER=
